Resident Evil Trilogy
 
http://www.imdb.com/title/tt0120804/
 
http://www.imdb.com/title/tt0318627/
 
http://www.imdb.com/title/tt0432021/


Source  :

Resident Evil.cddhd.x264.hddvd.720p

Resident.Evil.Apocalypse.2004.720p.BluRay.x264-ESiR

Resident.Evil.Extinction.720p.BluRay.x264-SEPTiC

Info:

ID                               : 1
Format                           : AVC
Format/Info                      : Advanced Video Codec
Format profile                   : Baseline@L2.1
Format settings, CABAC           : No
Format settings, ReFrames        : 3 frames
Codec ID                         : avc1
Codec ID/Info                    : Advanced Video Coding
Duration                         : 1h 40mn
Bit rate mode                    : Variable
Bit rate                         : 395 Kbps
Width                            : 480 pixels
Height                           : 256 pixels
Display aspect ratio             : 1.875
Frame rate mode                  : Variable
Frame rate                       : 23.976 fps
Minimum frame rate               : 23.810 fps
Maximum frame rate               : 24.390 fps
Color space                      : YUV
Chroma subsampling               : 4:2:0
Bit depth                        : 8 bits
Scan type                        : Progressive
Bits/(Pixel*Frame)               : 0.134
Stream size                      : 284 MiB (75%)
Writing library                  : x264 core 79

ID                               : 2
Format                           : AAC
Format/Info                      : Advanced Audio Codec
Format version                   : Version 4
Format profile                   : LC
Format settings, SBR             : No
Codec ID                         : 40
Duration                         : 1h 40mn
Bit rate mode                    : Variable
Bit rate                         : 128 Kbps
Maximum bit rate                 : 237 Kbps
Channel(s)                       : 2 channels
Channel positions                : Front: L R
Sampling rate                    : 48.0 KHz
Stream size                      : 91.9 MiB (24%)
Language                         : English


Screens: 
 
http://img716.imageshack.us/img716/4209/residentevil1ooom4vthum.jpg
 
http://img717.imageshack.us/img717/2098/residentevil2apocalypseo.jpg
 
http://img694.imageshack.us/img694/5892/residentevil3extinctionu.jpg



PLEASE LET THE TORRENT SEED AND SHARE IT WITH ALL YOU KNOW!

Let me know what I can do to be your trusted source of Handheld videos.
 
http://thepiratebay.org/user/on.off.on/ -OOO